<svg xmlns="http://www.w3.org/2000/svg" viewBox="0 0 170.87 69.98"><title>Sin título-1</title><g style="isolation:isolate"><g id="Capa_1" data-name="Capa 1"><g style="mix-blend-mode:exclusion"><path d="M5.5,47.43l2.83-7.59L11,47.49H5.5Zm8.25,7.71h2.59L9.6,36.77H7.07l-7,18.37H2.67l2.05-5.66h7ZM26,51.22c0,1.51-1.21,2.29-3.32,2.29C21,53.51,19.89,53,19.23,52l-2.47.42c1,2,2.95,2.89,5.78,2.89,3.86,0,5.84-2.11,5.84-4.4,0-2.89-2.71-3.67-5.78-4.33-1.5-.31-3.25-.85-3.25-2.17,0-1,.9-2,2.77-2a3.5,3.5,0,0,1,3.19,1.81l2.17-.91a5.4,5.4,0,0,0-5.06-2.65c-3.25,0-5.36,1.57-5.36,4.1,0,2.89,2.47,3.43,4.88,4C24,49.18,26,49.66,26,51.22Zm7.58-14.45-2.41,1v3.38H28.93v1.92h2.22v9c-.06,1.8-.06,3.13,2.71,3.13A15.59,15.59,0,0,0,36.15,55V53.09a7.37,7.37,0,0,1-1.5.3c-1,0-1-.72-1-2.35V43.09h2.53V41.17H33.62v-4.4Zm4.64,4.4v14h2.35V48.69a6.69,6.69,0,0,1,.6-3.61c.78-1.26,1.87-1.69,4.22-1.75v-2.4a5,5,0,0,0-4.76,2.71V41.17Zm21-4.4v2.29H69.63L59.22,52.79V55.2H72.64V53H62L72.4,39.12V36.83H59.16Zm28.18,4.4v14h2.35v-8a3.88,3.88,0,0,1,1-3.13A3.62,3.62,0,0,1,93.36,43a3,3,0,0,1,3,1.93,9.59,9.59,0,0,1,.12,2.29v7.89h2.35V46.89a9.7,9.7,0,0,0-.24-2.83A4.61,4.61,0,0,0,94,40.87a4.79,4.79,0,0,0-4.33,2.46v-2.1H87.34Zm36.37,10.59a3.27,3.27,0,0,1-3.25,1.81c-1.57,0-4.22-1-4.22-5.6,0-1.26.24-5.6,4.1-5.6a3.33,3.33,0,0,1,3.25,2l2.17-.91a6.27,6.27,0,0,0-5.54-2.77c-4.46,0-6.63,3.56-6.63,7.53,0,3.43,1.87,7.23,6.81,7.23a5.88,5.88,0,0,0,5.3-2.77ZM76,46.71h7.4c-.18-3.68-2.29-4.28-3.73-4.28C77.7,42.43,76.32,43.88,76,46.71Zm9.33,5.78A5.74,5.74,0,0,1,80,55.38c-4.09,0-6.5-2.77-6.5-7.47,0-5.24,3.43-7.23,6.38-7.23,2.59,0,5,1.45,5.84,4.94A14,14,0,0,1,86,48.45H76c-.06,2.35.9,5.3,4.21,5.24a3.36,3.36,0,0,0,2.89-1.56Zm17.34-5.78h7.41c-.18-3.68-2.29-4.28-3.73-4.28C104.32,42.43,102.93,43.88,102.69,46.71ZM112,52.49a5.76,5.76,0,0,1-5.36,2.89c-4.1,0-6.51-2.77-6.51-7.47,0-5.24,3.44-7.23,6.39-7.23,2.59,0,5,1.45,5.84,4.94a14,14,0,0,1,.24,2.83H102.51c-.06,2.35.91,5.3,4.22,5.24a3.38,3.38,0,0,0,2.89-1.56Zm26.67,2.65h-2.47a12.53,12.53,0,0,1-.3-2,6.14,6.14,0,0,1-4.69,2.23c-2.71,0-4.7-1.63-4.7-4a3.72,3.72,0,0,1,.6-2.1c.78-1.21,2.29-2.11,6.44-2.47l2.23-.18v-.37c0-1.44,0-3.85-3.13-3.85-1.93,0-2.65,1-2.83,1.81l-2.17-.91c.06-.06.06-.18.12-.24a5.19,5.19,0,0,1,4.82-2.47,6.63,6.63,0,0,1,4,1.21,4.65,4.65,0,0,1,1.51,3.49l.12,7.17A11.47,11.47,0,0,0,138.64,55.14Zm-3.25-3.86c.36-.78.36-1.08.36-3.13a35.1,35.1,0,0,0-3.67.66c-2.59.55-3,1.57-3,2.53,0,1.15.9,2,2.65,2A3.77,3.77,0,0,0,135.39,51.28ZM57.53,55.14H55.12a12.53,12.53,0,0,1-.3-2,6.14,6.14,0,0,1-4.7,2.23c-2.71,0-4.75-1.63-4.75-4a3.72,3.72,0,0,1,.6-2.1c.78-1.21,2.29-2.11,6.44-2.47l2.23-.18v-.37c0-1.44,0-3.85-3.13-3.85-2,0-2.65,1-2.83,1.81l-2.17-.91c.06-.06.06-.18.12-.24a5.18,5.18,0,0,1,4.82-2.47,6.63,6.63,0,0,1,4,1.21A4.65,4.65,0,0,1,57,45.26l.06,7.17A17.36,17.36,0,0,0,57.53,55.14Zm-3.19-3.86c.36-.78.36-1.08.36-3.13a35.1,35.1,0,0,0-3.67.66c-2.59.55-3,1.57-3,2.53,0,1.15.91,2,2.65,2A3.88,3.88,0,0,0,54.34,51.28Z"/><path d="M153.88,43.39l-1.09.73c-4.21-2.35-13.24-6.87-14-7.23s-2.29-1-2.1-2.41c.24-1.92,3.67-6.2,5.11-8C149.6,17,153.09,14,155.38,14.31c2.47.3,3.86,2.89,4,14.81-1.39-.42-2.89-.84-4.52-1.26-.12-1.75-.48-4.34-.6-5.24s-.36-1.39-.72-1.45-1.63,1-2.65,2.11c-.48.48-1.81,1.81-3.26,3.31a2.65,2.65,0,0,0-2.46.79,2.3,2.3,0,0,0-.24,2L143,31.29c-1.63,1.63-3.37,3-3.43,3.61s.72,1.09,1.92,1.81C144.3,38.22,151.35,42.07,153.88,43.39Zm11-11.92A85.91,85.91,0,0,0,148.1,27c-2.47-.31-3.44.54-2.47,2.89A39.3,39.3,0,0,0,152,39.06c2.71,2.89,5.66,3.67,6.62-.78.06-.18.06-.3.12-.49a22.14,22.14,0,0,0,.49-3.25c-1.21-.54-2.59-1.14-3.92-1.68.06,1,.18,2.83.24,4.15v.48c.06,2.23-.66,2.23-1.92,1.33-1.45-1-6-7-6.51-9.64,0-.18.06-.18.12-.12s.06,0,.12.06h0c1,.42,4.4,1.75,7.83,3.19,1.39.61,2.77,1.15,4,1.75s2.28,1.08,3.13,1.51c1.5.78,2.05,1.32,1.44,2-3.07,3.13-13.91,7.59-17.64,13.13l-.06.06c-.06.06-.06.12-.12.18a.06.06,0,0,1-.06.06,5.69,5.69,0,0,0-.54,1.63c-.18,1.2.48,2.29,2.22,2.77a9,9,0,0,0,1.45.3h.3c3.31.18,12-1.75,14.57-2.89s1.93-2.41,1.15-3c-.6-.48-3.62-2.17-5.06-3a6.76,6.76,0,0,0-1.08.72c2.46,1.51,3.49,2.29,4.09,2.71.24.18.12.36-.24.42h-.24c-2.35.18-6.87.48-9,.6-.31,0-.67.06-.85.06.54-.48,1.09-.9,1.39-1.14,4.51-3.19,12-7.65,14.27-9.58C170,39.12,174.41,34.78,164.84,31.47Z" style="fill:#afafaf"/></g></g></g></svg>