<svg id="Capa_1" data-name="Capa 1" xmlns="http://www.w3.org/2000/svg" viewBox="0 0 170.87 69.98"><title>Sin título-1</title><path d="M157.41,52.06H155c-.56,0-.86.42-.86,1.21s.3,1.17.86,1.17h9.36c.6,0,.9-.42.9-1.17s-.3-1.21-.9-1.21Z" style="fill:#b5b5b5"/><path d="M143.13,52.06H140.7c-.55,0-.88.42-.88,1.21s.33,1.17.88,1.17h9.36c.58,0,.87-.42.87-1.17s-.29-1.21-.87-1.21Z" style="fill:#bdbdbd"/><path d="M129.62,52.06h-2.43c-.6,0-.86.42-.86,1.21s.26,1.17.86,1.17h9.35c.6,0,.9-.42.9-1.17s-.3-1.21-.9-1.21Z" style="fill:#c3c3c3"/><path d="M115.35,52.06h-2.42c-.6,0-.9.42-.9,1.21s.3,1.17.9,1.17h9.32c.6,0,.9-.42.9-1.17s-.3-1.21-.9-1.21Z" style="fill:#c8c8c8"/><path d="M101.06,52.06H98.63c-.59,0-.89.42-.89,1.21s.3,1.17.89,1.17H108c.59,0,.89-.42.89-1.17s-.3-1.21-.89-1.21Z" style="fill:#cdcdcd"/><path d="M87.56,52.06H85.14c-.6,0-.9.42-.9,1.21s.3,1.17.9,1.17h9.33c.59,0,.89-.42.89-1.17s-.3-1.21-.89-1.21Z" style="fill:#d1d1d1"/><path d="M73.27,52.06H70.84c-.59,0-.89.42-.89,1.21s.3,1.17.89,1.17h9.34c.62,0,.89-.42.89-1.17s-.27-1.21-.89-1.21Z" style="fill:#d5d5d5"/><path d="M59,52.06H56.56c-.6,0-.9.42-.9,1.21s.3,1.17.9,1.17h9.35c.57,0,.87-.42.87-1.17s-.3-1.21-.87-1.21Z" style="fill:#dadada"/><path d="M45.48,52.06H43.05c-.59,0-.89.42-.89,1.21s.3,1.17.89,1.17h9.34c.59,0,.89-.42.89-1.17s-.3-1.21-.89-1.21Z" style="fill:#dcdcdc"/><path d="M31.17,52.06H28.76c-.59,0-.89.42-.89,1.21s.3,1.17.89,1.17H38.1c.59,0,.89-.42.89-1.17s-.3-1.21-.89-1.21Z" style="fill:#e0e0e0"/><path d="M16.89,52.06H14.47c-.59,0-.89.42-.89,1.21s.3,1.17.89,1.17h9.34c.59,0,.89-.42.89-1.17s-.3-1.21-.89-1.21Z" style="fill:#e4e4e4"/><path d="M3.38,52.06H1c-.6,0-.87.42-.87,1.21s.27,1.17.87,1.17h9.36c.59,0,.89-.42.89-1.17s-.3-1.21-.89-1.21Z" style="fill:#e7e7e7"/><path d="M.08,23.2H2.62v3.49a9.92,9.92,0,0,1,2.7-2.82,7.62,7.62,0,0,1,4-1.19,6.7,6.7,0,0,1,2.72.57,5.43,5.43,0,0,1,2.09,1.55,8.4,8.4,0,0,1,1.41,2.71,9.9,9.9,0,0,1,3.14-3.61,7.46,7.46,0,0,1,4.08-1.22,6.16,6.16,0,0,1,3.6,1.06,6.45,6.45,0,0,1,2.33,3,16.16,16.16,0,0,1,.74,5.64v11H26.89v-11a15.18,15.18,0,0,0-.45-4.45,4,4,0,0,0-1.56-1.94,4.41,4.41,0,0,0-2.59-.74,5.63,5.63,0,0,0-3.36,1.12,6.31,6.31,0,0,0-2.22,2.94A19.68,19.68,0,0,0,16,35.45v7.87H13.48V33a18.59,18.59,0,0,0-.43-5A4.17,4.17,0,0,0,11.49,26a4.46,4.46,0,0,0-2.62-.79,5.47,5.47,0,0,0-3.28,1.09,6.33,6.33,0,0,0-2.25,2.89,16.31,16.31,0,0,0-.72,5.61v8.53H.08Z" style="fill:#555"/><path d="M44.56,25.26a7.23,7.23,0,0,0-5.46,2.41,8.19,8.19,0,0,0-2.29,5.85,8.6,8.6,0,0,0,1,4.12,7.33,7.33,0,0,0,2.82,2.94,7.74,7.74,0,0,0,7.75,0,7.33,7.33,0,0,0,2.82-2.94,8.5,8.5,0,0,0,1-4.12A8.23,8.23,0,0,0,50,27.67a7.22,7.22,0,0,0-5.44-2.41m0-2.58a9.75,9.75,0,0,1,7.57,3.41A11.13,11.13,0,0,1,52,40.91a9.5,9.5,0,0,1-7.4,3.21,9.5,9.5,0,0,1-7.43-3.21A11.08,11.08,0,0,1,37,26.12a9.68,9.68,0,0,1,7.59-3.44" style="fill:#555"/><path d="M69.31,25.31a7.58,7.58,0,0,0-4,1.07,7.78,7.78,0,0,0-2.86,3,8.33,8.33,0,0,0,0,8.17,8.09,8.09,0,0,0,2.88,3.06,7.76,7.76,0,0,0,3.9,1.09,8.1,8.1,0,0,0,4-1.09,7.76,7.76,0,0,0,2.88-2.92,8.55,8.55,0,0,0,1-4.16,8,8,0,0,0-2.28-5.86,7.34,7.34,0,0,0-5.54-2.38m10.17-9.77V43.6H77V40.11a11.5,11.5,0,0,1-3.58,3,9.89,9.89,0,0,1-4.38,1A9.53,9.53,0,0,1,61.82,41a10.59,10.59,0,0,1-3-7.59,10.41,10.41,0,0,1,3-7.48,9.72,9.72,0,0,1,7.24-3.11,9.1,9.1,0,0,1,4.41,1.06A9.91,9.91,0,0,1,77,27.06V15.54Z" style="fill:#555"/><path d="M102.06,31.33A9.13,9.13,0,0,0,100.55,28a6.88,6.88,0,0,0-2.62-2,7.52,7.52,0,0,0-3.39-.78,7.28,7.28,0,0,0-5.07,1.93,8.88,8.88,0,0,0-2.34,4.2Zm0,5.49L104.21,38a12.36,12.36,0,0,1-2.45,3.43,10.12,10.12,0,0,1-3.15,2,11.3,11.3,0,0,1-4,.68A9.51,9.51,0,0,1,87,40.85a11.2,11.2,0,0,1-2.75-7.38,11,11,0,0,1,2.32-6.92,9.53,9.53,0,0,1,8-3.86,9.8,9.8,0,0,1,8.15,3.94,11.16,11.16,0,0,1,2.22,7h-18a8.38,8.38,0,0,0,2.24,5.82,7.08,7.08,0,0,0,5.31,2.28,8.36,8.36,0,0,0,3-.56,7.59,7.59,0,0,0,2.46-1.43,11.44,11.44,0,0,0,2.21-2.9" style="fill:#555"/><path d="M108.86,23.2h2.67v2.95a9.26,9.26,0,0,1,2.53-2.6,4.63,4.63,0,0,1,5.12-.19l-1.38,2.19a3.57,3.57,0,0,0-1.37-.35,3.77,3.77,0,0,0-2.53,1.05A6.67,6.67,0,0,0,112,29.56a31,31,0,0,0-.49,7v6.79h-2.67Z" style="fill:#555"/><path d="M122.36,23.2h2.45v3.6a10.25,10.25,0,0,1,3.26-3.08,7.67,7.67,0,0,1,3.9-1,6.56,6.56,0,0,1,3.81,1.14,7,7,0,0,1,2.45,3.09A16.84,16.84,0,0,1,139,33V43.32h-2.45V33.74a26.25,26.25,0,0,0-.28-4.67,5.12,5.12,0,0,0-1.65-3,4.88,4.88,0,0,0-3.18-1,5.94,5.94,0,0,0-4,1.54,7.33,7.33,0,0,0-2.32,3.84,28.82,28.82,0,0,0-.35,5.48v7.39h-2.45Z" style="fill:#555"/><path d="M154.26,25.2a7.71,7.71,0,0,0-3.95,1.07,8,8,0,0,0-2.86,3.05,8.41,8.41,0,0,0,0,8.21,8.15,8.15,0,0,0,2.88,3.08,7.67,7.67,0,0,0,3.9,1.1,8,8,0,0,0,4-1.1,7.7,7.7,0,0,0,2.89-2.94,8.7,8.7,0,0,0,1-4.17,8.18,8.18,0,0,0-2.24-5.9,7.47,7.47,0,0,0-5.58-2.4m10.17-2V43.6h-2.51V40.08a11.24,11.24,0,0,1-3.58,3,9.89,9.89,0,0,1-4.38,1A9.44,9.44,0,0,1,146.78,41a10.65,10.65,0,0,1-3-7.63,10.49,10.49,0,0,1,3-7.52A9.63,9.63,0,0,1,154,22.68a9,9,0,0,1,4.41,1.08,9.83,9.83,0,0,1,3.47,3.2V23.21Z" style="fill:#555"/><path d="M168.78,25h.32c.17,0,.28,0,.33-.07a.18.18,0,0,0,.11-.18.29.29,0,0,0,0-.14.38.38,0,0,0-.11-.11l-.3,0h-.3Zm-.27,1V24.21h.57a1.86,1.86,0,0,1,.46,0,.8.8,0,0,1,.21.2.38.38,0,0,1,.08.24.45.45,0,0,1-.13.33.73.73,0,0,1-.38.16c.09,0,.11.07.17.08s.12.2.23.36l.22.33h-.35l-.14-.27a1.66,1.66,0,0,0-.29-.42,1.19,1.19,0,0,0-.22-.05h-.16v.74Zm.68-2.24a1.37,1.37,0,0,0-.66.18,1.11,1.11,0,0,0-.48.5,1.21,1.21,0,0,0-.19.68,1.19,1.19,0,0,0,.19.66,1.06,1.06,0,0,0,.48.5,1.19,1.19,0,0,0,.66.19,1.18,1.18,0,0,0,.67-.19,1.08,1.08,0,0,0,.49-.5,1.28,1.28,0,0,0,0-1.34,1.31,1.31,0,0,0-.49-.5,1.25,1.25,0,0,0-.67-.18m0-.22a2,2,0,0,1,.78.17,1.37,1.37,0,0,1,.6.59,1.4,1.4,0,0,1,.21.82,1.59,1.59,0,0,1-.18.8,1.81,1.81,0,0,1-.6.6,1.78,1.78,0,0,1-.81.19,1.71,1.71,0,0,1-.8-.19,1.88,1.88,0,0,1-.59-.6,1.6,1.6,0,0,1-.19-.8,1.65,1.65,0,0,1,.19-.82,1.75,1.75,0,0,1,.59-.59,2.21,2.21,0,0,1,.8-.17" style="fill:#555"/></svg>