<svg xmlns="http://www.w3.org/2000/svg" viewBox="0 0 170.87 69.98"><title>Sin título-1</title><g style="isolation:isolate"><g id="Capa_1" data-name="Capa 1"><g id="surface1" style="mix-blend-mode:exclusion"><path d="M22.61,29.64c1.54-5.64,8-7,13.88-7.15A83.55,83.55,0,0,1,46.78,23l-2.55,9.32A81.29,81.29,0,0,0,34,31.81C28,32,21.6,33.32,20.06,39Z" style="fill:#888"/><path d="M76.94,25.05l-6,22H76l2.23-8.15h4.4c4.85,0,8.07-2.68,8.94-6.4.81-3.47-1.22-7.46-6.65-7.46Zm4.35,2.59h1.94c2,0,3.65,1.63,3.26,4.47-.36,2.63-3.21,4.2-5.7,4.2H78.91Z" style="fill:#363636"/><path d="M129.27,31.9c-4.26,0-7.33,3.66-8.06,7.32a6.68,6.68,0,0,0,6.85,8.19A9.34,9.34,0,0,0,134,45.67l-.91-2.24a6.83,6.83,0,0,1-4,1.35c-2.31,0-3.76-1.82-3.44-4.73h9.44C135.78,38.34,136.15,31.9,129.27,31.9Zm0,2.43c2.64,0,2,3.49,2,3.49l-5.29,0S126.88,34.33,129.25,34.33Z" style="fill:#363636"/><path d="M93.57,31.34,85.25,61.76H90.1l7.38-27h5L99.16,47.06H104l4-14.71H98.15c.5-1.86,1-3.83,1.48-5.45.82-3,2.15-5.13,4.08-5.06,2.14.08,1.05,1.48.76,2.55a2.41,2.41,0,0,0,2.6,3c4.16,0,5.18-7.64-2.6-7.64S94.68,27.26,93.57,31.34Z" style="fill:#363636"/><path d="M109.87,32.35l-.67,2.44h6.15l-9.67,12.27h13.66l.67-2.44h-6.94l9.67-12.27Z" style="fill:#363636"/><path d="M148.07,32.1c-3.16,0-5,3.27-5,3.27l.83-3H139l-4,14.71h4.85s1.17-4.3,1.77-6.44c.91-3.36,2.79-5.46,3.69-5.54s.94,2.4,3,2.4C151.35,37.48,152,32.1,148.07,32.1Z" style="fill:#363636"/><path d="M59.53,47.1C42.12,46,21.9,37,22.61,29.64l-2.4,8.78c-.73,7.55,18,16.5,36.77,18Z" style="fill:#363636"/><path d="M65.85,35c-1.54,5.64-8,7-13.88,7.15a81.52,81.52,0,0,1-10.29-.51l2.55-9.31a82.37,82.37,0,0,0,10.29.5c5.91-.16,12.34-1.5,13.88-7.15Z" style="fill:#363636"/><path d="M28.93,17.53C46.34,18.62,66.56,27.6,65.85,35l2.4-8.78c.73-7.54-18-16.49-36.77-18Z" style="fill:#888"/><path d="M22.61,29.64c1.54-5.64,8-7,13.88-7.15A83.55,83.55,0,0,1,46.78,23l-2.55,9.32A81.29,81.29,0,0,0,34,31.81C28,32,21.6,33.32,20.06,39Z" style="fill:#888"/><path d="M59.53,47.1C42.12,46,21.9,37,22.61,29.64l-2.4,8.78c-.73,7.55,18,16.5,36.77,18Z" style="fill:#363636"/><path d="M65.85,35c-1.54,5.64-8,7-13.88,7.15a81.52,81.52,0,0,1-10.29-.51l2.55-9.31a82.37,82.37,0,0,0,10.29.5c5.91-.16,12.34-1.5,13.88-7.15Z" style="fill:#363636"/><path d="M28.93,17.53C46.34,18.62,66.56,27.6,65.85,35l2.4-8.78c.73-7.54-18-16.49-36.77-18Z" style="fill:#888"/></g></g></g></svg>