<svg id="Capa_1" data-name="Capa 1" xmlns="http://www.w3.org/2000/svg" viewBox="0 0 170.87 69.98"><title>Sin título-1</title><polygon points="25.68 21.32 25.68 24.55 25.68 45.43 25.68 48.66 32.67 48.66 32.67 45.43 32.67 24.55 32.67 21.32 25.68 21.32"/><path d="M93.73,35c0,4.46-1.22,7.95-3.58,10.49s-5.76,3.75-10.05,3.75-7.68-1.22-10-3.75-3.58-6-3.58-10.49,1.22-8,3.58-10.57,5.76-3.75,10.13-3.75,7.69,1.22,10.14,3.75c2.27,2.45,3.4,6,3.4,10.57m-6.64,0a11.28,11.28,0,0,0-1.83-6.81,6.1,6.1,0,0,0-5.16-2.53A6,6,0,0,0,75,28.22,11.28,11.28,0,0,0,73.12,35,11.48,11.48,0,0,0,75,41.85a6.52,6.52,0,0,0,10.31,0A11.67,11.67,0,0,0,87.09,35"/><polygon points="115.31 21.32 122.3 21.32 112.95 48.66 104.83 48.66 95.48 21.32 102.47 21.32 108.84 40.97 115.31 21.32" style="fill:#454545"/><path d="M.61,48.22V42.81a27.41,27.41,0,0,0,8.13,1.4c3.32,0,4.89-.88,4.89-2.62a2.35,2.35,0,0,0-.7-1.66A15.29,15.29,0,0,0,9.17,38c-3.58-1.48-5.94-2.79-7.07-3.84A7.1,7.1,0,0,1,0,28.92a7,7,0,0,1,3.14-6.2,13.88,13.88,0,0,1,8-2.1,42.06,42.06,0,0,1,8.13,1v4.81A29.56,29.56,0,0,0,12,25.25c-3.06,0-4.63.87-4.63,2.53a2,2,0,0,0,1,1.58,38.4,38.4,0,0,0,4.28,2.09,27.55,27.55,0,0,1,6.73,3.85,6.83,6.83,0,0,1,2,5.06,7.62,7.62,0,0,1-3.84,6.82A15.12,15.12,0,0,1,9.35,49.1a32.14,32.14,0,0,1-8.74-.88"/><polygon points="37.91 48.66 37.91 21.32 46.65 21.32 56.34 39.58 56.34 21.32 61.76 21.32 61.76 48.66 53.55 48.66 43.33 30.05 43.33 48.66 37.91 48.66"/><polygon points="126.93 48.66 119.94 48.66 129.29 21.32 137.41 21.32 146.76 48.66 139.77 48.66 133.3 29.01 126.93 48.66" style="fill:#454545"/><path d="M170.6,43.33a30.25,30.25,0,0,1-6.55,1,9.22,9.22,0,0,1-6.81-2.53A8.82,8.82,0,0,1,154.71,35a9.28,9.28,0,0,1,2.53-6.72,8.67,8.67,0,0,1,6.64-2.62,22,22,0,0,1,6.81,1.22v-5a15.74,15.74,0,0,0-2.71-.7,22.72,22.72,0,0,0-4.45-.44q-7.08,0-11.27,3.94c-2.8,2.62-4.19,6.11-4.19,10.57s1.39,7.86,4.19,10.3,6.55,3.76,11.44,3.76a21.64,21.64,0,0,0,4.2-.35,29.41,29.41,0,0,0,3-.61V43.33Z" style="fill:#454545"/></svg>